<svg id="Layer_2" xmlns="http://www.w3.org/2000/svg" viewBox="0 0 395.41 86.85"><g id="Layer_6"><g><path d="M115.11,84.14c-.31,0-.53-.08-.65-.25s-.21-.29-.26-.37l-2.76-5.4-5,5.4c-.08,.08-.21,.2-.39,.37-.18,.16-.44,.25-.76,.25h-2.49c-.28,0-.46-.11-.53-.33-.07-.22-.03-.42,.14-.6l7.54-8.11-3.62-7.22c-.12-.23-.09-.45,.07-.67,.16-.21,.39-.32,.69-.32h1.75c.33,0,.55,.08,.67,.25,.12,.16,.2,.29,.25,.37l2.61,5.15,4.76-5.15c.08-.08,.21-.21,.39-.37,.18-.16,.44-.25,.76-.25h2.46c.26,0,.44,.11,.52,.33,.08,.22,.04,.42-.12,.6l-7.3,7.86,3.77,7.42c.07,.13,.09,.26,.06,.38-.02,.12-.08,.23-.16,.33-.08,.1-.18,.18-.3,.23-.12,.06-.23,.09-.34,.09h-1.75Z" style="fill:#ee3524; fill-rule:evenodd;"/><path d="M149.51,73.32c.25-.92,.58-1.79,1.01-2.6,.43-.81,.98-1.52,1.65-2.12,.67-.6,1.48-1.08,2.43-1.43,.94-.35,2.05-.53,3.31-.53,1.08,0,2.04,.17,2.86,.52,.82,.34,1.5,.82,2.03,1.43,.53,.61,.9,1.31,1.11,2.12,.21,.81,.23,1.68,.09,2.61-.05,.31-.11,.66-.18,1.04-.07,.38-.16,.77-.25,1.17-.09,.4-.18,.79-.27,1.17-.09,.38-.17,.72-.23,1.03-.25,.92-.57,1.79-.97,2.6-.4,.81-.94,1.52-1.6,2.12-.67,.6-1.48,1.07-2.43,1.42s-2.09,.52-3.43,.52c-1.08,0-2.04-.17-2.86-.52-.82-.34-1.5-.82-2.02-1.42-.53-.6-.89-1.31-1.1-2.12-.21-.81-.23-1.68-.09-2.6,.05-.31,.11-.66,.19-1.03,.07-.38,.15-.77,.23-1.17,.08-.4,.17-.79,.26-1.17,.09-.38,.18-.72,.26-1.04h0Zm11.14,.12c.18-1.18,0-2.1-.57-2.75-.56-.65-1.41-.97-2.56-.97s-2.14,.32-2.98,.97c-.84,.65-1.41,1.56-1.72,2.75-.18,.62-.35,1.32-.52,2.08-.16,.76-.29,1.46-.37,2.08-.2,1.18-.01,2.09,.56,2.74,.57,.64,1.42,.96,2.57,.96s2.14-.32,2.97-.96c.83-.64,1.41-1.55,1.74-2.74,.16-.63,.33-1.32,.49-2.08,.16-.76,.3-1.46,.39-2.08Z" style="fill:#ee3524; fill-rule:evenodd;"/><path d="M200.94,69.97l-2,9.37c-.16,.74-.39,1.42-.68,2.03-.29,.62-.66,1.15-1.12,1.6-.46,.45-1.02,.8-1.69,1.05-.67,.25-1.45,.37-2.35,.37h-.86c-.18,0-.32-.07-.42-.2-.1-.13-.13-.29-.1-.47l.37-1.75c.03-.18,.13-.34,.3-.47,.16-.13,.34-.2,.52-.2h.25c.79,0,1.37-.2,1.74-.59,.37-.39,.63-.92,.78-1.58l2.46-11.58c.03-.18,.13-.34,.28-.47,.16-.13,.32-.2,.5-.2h11.19c.18,0,.32,.07,.43,.2,.11,.13,.14,.29,.11,.47l-3.4,15.92c-.03,.18-.13,.34-.28,.47-.16,.13-.32,.2-.51,.2h-2c-.18,0-.33-.07-.43-.2s-.14-.29-.11-.47l2.88-13.51h-5.87Z" style="fill:#ee3524; fill-rule:evenodd;"/><path d="M256.17,66.89c.18,0,.32,.07,.43,.2,.11,.13,.14,.29,.11,.47l-2.88,13.51h.81c.18,0,.32,.07,.43,.2,.11,.13,.14,.29,.09,.47l-.94,4.46c-.03,.18-.13,.34-.3,.47-.16,.13-.34,.2-.52,.2h-2c-.18,0-.32-.07-.42-.2-.1-.13-.13-.29-.1-.47l.44-2.05h-10.08l-.44,2.05c-.03,.18-.13,.34-.3,.47-.16,.13-.34,.2-.52,.2h-2c-.18,0-.32-.07-.42-.2-.1-.13-.13-.29-.1-.47l.94-4.46c.03-.18,.12-.33,.27-.46,.15-.12,.31-.19,.49-.21h.34c.62,0,1.13-.23,1.5-.7,.38-.47,.67-1.2,.89-2.21l2.27-10.6c.03-.18,.13-.34,.28-.47,.16-.13,.33-.2,.51-.2h11.19Zm-5.67,14.17l2.37-11.09h-5.87l-1.8,8.43c-.08,.38-.2,.83-.36,1.37-.16,.53-.4,.97-.73,1.29h6.38Z" style="fill:#ee3524; fill-rule:evenodd;"/><path d="M286.73,84.14c-.18,0-.32-.07-.43-.2-.11-.13-.14-.29-.11-.47l3.4-15.92c.03-.18,.13-.34,.28-.47,.16-.13,.32-.2,.5-.2h2c.18,0,.32,.07,.43,.2,.11,.13,.14,.29,.11,.47l-2.12,9.88,9.02-9.98c.08-.08,.21-.2,.39-.34,.18-.15,.41-.22,.69-.22h1.73c.18,0,.32,.07,.43,.2,.11,.13,.14,.29,.11,.47l-3.4,15.92c-.03,.18-.13,.34-.28,.47-.16,.13-.32,.2-.5,.2h-2c-.18,0-.32-.07-.43-.2-.11-.13-.14-.29-.11-.47l2.12-9.96-9.05,10.05c-.08,.08-.21,.2-.38,.35-.17,.15-.4,.22-.68,.22h-1.73Z" style="fill:#ee3524; fill-rule:evenodd;"/><path d="M348.98,66.89c.18,0,.32,.07,.43,.2,.11,.13,.14,.29,.11,.47l-3.4,15.92c-.03,.18-.13,.34-.28,.47s-.32,.2-.5,.2h-2c-.18,0-.32-.07-.43-.2-.11-.13-.14-.29-.11-.47l1.38-6.51h-7.44l-1.38,6.51c-.03,.18-.13,.34-.28,.47-.16,.13-.33,.2-.51,.2h-2c-.18,0-.32-.06-.43-.18-.11-.12-.14-.28-.11-.48l3.4-15.92c.03-.18,.13-.34,.28-.47,.16-.13,.32-.2,.5-.2h2c.18,0,.32,.07,.43,.2,.11,.13,.14,.29,.11,.47l-1.35,6.33h7.44l1.36-6.33c.03-.18,.13-.34,.28-.47,.16-.13,.33-.2,.51-.2h2Z" style="fill:#ee3524; fill-rule:evenodd;"/><path d="M393.21,66.89c.18,0,.32,.07,.43,.2,.11,.13,.14,.29,.11,.47l-.39,1.75c-.03,.18-.13,.34-.28,.47-.16,.13-.32,.2-.51,.2h-7.99l-2.88,13.51c-.03,.18-.13,.34-.28,.47-.16,.13-.32,.2-.51,.2h-2c-.18,0-.32-.07-.43-.2-.11-.13-.14-.29-.11-.47l3.4-15.92c.03-.18,.13-.34,.28-.47,.16-.13,.32-.2,.5-.2h10.65Z" style="fill:#ee3524; fill-rule:evenodd;"/><g><path d="M102.59,56.93c-.29-.37-.38-.82-.28-1.34L113.3,4.13c.1-.58,.37-1.05,.79-1.42,.42-.37,.92-.55,1.5-.55h7.11c.58,0,1.03,.18,1.34,.55,.21,.26,.32,.58,.32,.95,0,.16-.03,.32-.08,.48l-4.35,20.39h23.32l4.35-20.39c.1-.58,.37-1.05,.79-1.42,.42-.37,.92-.55,1.5-.55h7.11c.58,0,1.03,.18,1.34,.55,.21,.26,.32,.58,.32,.95,0,.16-.03,.32-.08,.48l-10.99,51.46c-.11,.58-.38,1.04-.83,1.38-.45,.34-.94,.51-1.46,.51h-7.11c-.58,0-1.01-.19-1.3-.55-.29-.37-.38-.82-.28-1.34l4.51-21.18h-23.32l-4.51,21.18c-.11,.58-.37,1.04-.79,1.38-.42,.34-.92,.51-1.5,.51h-7.11c-.58,0-1.02-.19-1.3-.55Z" style="fill:#306db6; fill-rule:evenodd;"/><path d="M167.09,53.97c-3.66-2.87-5.49-7.05-5.49-12.53,0-1.58,.16-3.19,.47-4.82,.68-3.9,1.63-8.4,2.84-13.52,1.74-7.17,4.85-12.58,9.33-16.24,4.48-3.66,10.3-5.49,17.47-5.49,5.95,0,10.75,1.49,14.39,4.47,3.64,2.98,5.45,7.21,5.45,12.69,0,1.69-.13,3.21-.4,4.58-.69,4.16-1.63,8.67-2.85,13.52-1.79,7.27-4.92,12.7-9.37,16.28-4.45,3.58-10.26,5.37-17.43,5.37-5.96,0-10.76-1.44-14.43-4.31h0Zm24.46-7.98c2.58-2.13,4.43-5.39,5.53-9.76,1.16-4.95,2.06-9.22,2.69-12.81,.26-1.32,.39-2.74,.39-4.27,0-5.8-3.06-8.7-9.17-8.7-3.64,0-6.75,1.07-9.33,3.2-2.58,2.13-4.4,5.39-5.45,9.76-1.16,4.48-2.08,8.75-2.77,12.81-.26,1.32-.4,2.74-.4,4.27,0,3,.76,5.2,2.29,6.6,1.53,1.4,3.82,2.09,6.88,2.09,3.64,0,6.75-1.07,9.33-3.2Z" style="fill:#306db6; fill-rule:evenodd;"/><path d="M215.15,56.93c-.29-.37-.38-.82-.28-1.34l10.99-51.46c.11-.58,.37-1.05,.79-1.42,.42-.37,.92-.55,1.5-.55h6.32c1.11,0,1.82,.5,2.13,1.5l9.25,28.46,21.42-28.46c.68-1,1.55-1.5,2.61-1.5h6.24c.58,0,1.03,.18,1.34,.55,.21,.26,.32,.58,.32,.95,0,.16-.03,.32-.08,.48l-10.99,51.46c-.11,.58-.38,1.04-.83,1.38-.45,.34-.94,.51-1.46,.51h-6.72c-.58,0-1.02-.19-1.31-.55-.29-.37-.38-.82-.28-1.34l7.19-33.52-15.18,20.39c-.84,1.16-1.85,1.74-3,1.74h-3.24c-1.16,0-1.92-.58-2.29-1.74l-6.8-21.58-7.35,34.7c-.11,.58-.38,1.04-.83,1.38-.45,.34-.94,.51-1.46,.51h-6.72c-.58,0-1.01-.19-1.3-.55Z" style="fill:#306db6; fill-rule:evenodd;"/><path d="M279.25,56.93c-.29-.37-.41-.84-.35-1.42l10.99-51.38c.11-.58,.37-1.05,.79-1.42,.42-.37,.92-.55,1.5-.55h7.19c.58,0,1,.18,1.26,.55,.21,.26,.32,.58,.32,.95,0,.16-.03,.32-.08,.48l-7.75,36.52L327.03,3.42c.74-.84,1.58-1.26,2.53-1.26h6.56c.53,0,.95,.18,1.26,.55,.21,.26,.32,.58,.32,.95,0,.16-.03,.32-.08,.48l-10.99,51.46c-.05,.53-.3,.98-.75,1.34-.45,.37-.94,.55-1.46,.55h-7.19c-.58,0-1.01-.19-1.3-.55-.29-.37-.38-.82-.28-1.34l7.67-35.73-33.75,36.36c-.69,.84-1.53,1.27-2.53,1.27h-6.56c-.53,0-.94-.19-1.22-.55Z" style="fill:#306db6; fill-rule:evenodd;"/><path d="M339.32,56.93c-.29-.37-.38-.82-.28-1.34l10.99-51.46c.1-.58,.37-1.05,.79-1.42,.42-.37,.92-.55,1.5-.55h7.11c.58,0,1.03,.18,1.34,.55,.21,.26,.32,.58,.32,.95,0,.16-.03,.32-.08,.48l-4.35,20.39h23.32l4.35-20.39c.11-.58,.37-1.05,.79-1.42,.42-.37,.92-.55,1.5-.55h7.11c.58,0,1.03,.18,1.34,.55,.21,.26,.32,.58,.32,.95,0,.16-.03,.32-.08,.48l-10.99,51.46c-.11,.58-.38,1.04-.83,1.38-.45,.34-.94,.51-1.46,.51h-7.11c-.58,0-1.02-.19-1.3-.55-.29-.37-.38-.82-.28-1.34l4.51-21.18h-23.32l-4.51,21.18c-.11,.58-.37,1.04-.79,1.38-.42,.34-.92,.51-1.5,.51h-7.11c-.58,0-1.01-.19-1.3-.55Z" style="fill:#306db6; fill-rule:evenodd;"/><g><path d="M80.74,46.79l-14.91,10.88c-.78,.57-1.88,.4-2.44-.38-.57-.78-.39-1.88,.39-2.45l7.43-5.43c.27-.2,.33-.58,.14-.85-.2-.27-.57-.33-.85-.13l-10.65,7.77c-.78,.57-1.88,.4-2.44-.38-.57-.78-.39-1.88,.39-2.45l9.7-7.08c.27-.2,.33-.58,.14-.85-.2-.27-.58-.33-.85-.13l-11.35,8.29c-.78,.57-1.88,.4-2.44-.38-.57-.78-.39-1.88,.39-2.45l11.3-8.25c.27-.2,.33-.58,.14-.85-.2-.27-.58-.33-.85-.13l-10.06,7.34c-.78,.57-1.88,.4-2.44-.38-.57-.78-.39-1.88,.39-2.45l14.76-10.78c.41-.3,.5-.87,.21-1.28-.17-.24-.43-.37-.71-.38h-5.58c-1.13,.01-2.05-.91-2.05-2.04s.92-2.06,2.05-2.06l14.58-.03c3.21,0,5.93,2.09,6.86,4.99h0l1.36,4.23h0c.94,2.9-.04,6.21-2.64,8.11h0Z" style="fill:#306db6; fill-rule:evenodd;"/><path d="M55.83,5.03l5.69,17.61c.3,.92-.2,1.92-1.12,2.22-.92,.3-1.9-.21-2.2-1.13l-2.84-8.78c-.1-.32-.44-.5-.76-.39-.32,.1-.49,.45-.39,.77l4.07,12.57c.3,.92-.2,1.92-1.12,2.21-.92,.3-1.9-.21-2.2-1.13l-3.71-11.46c-.1-.32-.44-.5-.76-.39-.32,.1-.49,.45-.39,.77l4.34,13.41c.3,.92-.2,1.92-1.12,2.22-.91,.3-1.9-.21-2.2-1.13l-4.31-13.34c-.1-.32-.44-.5-.76-.39-.32,.1-.49,.45-.39,.77l3.84,11.88c.3,.92-.2,1.92-1.12,2.21s-1.9-.21-2.2-1.13l-5.64-17.44c-.16-.48-.67-.75-1.15-.59-.28,.09-.48,.3-.57,.56l-1.71,5.33c-.35,1.08-1.5,1.67-2.57,1.32-1.07-.35-1.66-1.52-1.32-2.6h0l4.48-13.94C38.69,1.94,41.51,0,44.55,0h4.42c3.04,0,5.86,1.96,6.86,5.04h0Z" style="fill:#306db6; fill-rule:evenodd;"/><path d="M48.92,83.5l-14.91-10.88c-.78-.57-.96-1.67-.39-2.45,.57-.78,1.66-.95,2.44-.38l7.43,5.42c.27,.2,.65,.14,.85-.13,.2-.27,.14-.65-.14-.85l-10.65-7.77c-.78-.57-.96-1.67-.39-2.45,.57-.78,1.66-.96,2.44-.38l9.7,7.08c.27,.2,.65,.14,.85-.13,.2-.27,.14-.65-.14-.85l-11.35-8.28c-.78-.57-.96-1.67-.39-2.45,.57-.78,1.66-.95,2.44-.38l11.3,8.25c.27,.2,.65,.14,.85-.13,.2-.27,.13-.65-.14-.85l-10.06-7.34c-.78-.57-.96-1.67-.39-2.45,.57-.78,1.66-.96,2.44-.38l14.76,10.77c.41,.3,.98,.21,1.28-.2,.17-.24,.21-.53,.14-.79l-1.73-5.32c-.35-1.08,.23-2.24,1.31-2.59,1.08-.35,2.23,.24,2.58,1.33h0l4.53,13.93c1,3.06-.15,6.31-2.6,8.1h0l-3.58,2.61h0c-2.46,1.79-5.89,1.88-8.49-.02h0Z" style="fill:#306db6; fill-rule:evenodd;"/><path d="M4.33,64.43l5.69-17.61c.3-.92,1.28-1.43,2.2-1.13,.92,.3,1.42,1.29,1.12,2.22l-2.84,8.78c-.1,.32,.07,.66,.39,.77,.32,.1,.66-.07,.76-.39l4.07-12.57c.3-.92,1.28-1.43,2.2-1.13,.91,.3,1.41,1.29,1.12,2.21l-3.71,11.46c-.1,.32,.07,.66,.39,.77,.32,.1,.66-.07,.76-.39l4.34-13.41c.3-.92,1.28-1.43,2.2-1.13,.92,.3,1.42,1.29,1.12,2.21l-4.32,13.34c-.1,.32,.07,.66,.39,.77,.32,.1,.66-.07,.76-.39l3.84-11.88c.3-.92,1.28-1.43,2.2-1.13,.92,.3,1.42,1.29,1.12,2.21l-5.64,17.43c-.16,.48,.11,1,.58,1.16,.28,.09,.57,.04,.79-.11l4.51-3.3c.91-.67,2.19-.47,2.86,.45,.66,.92,.46,2.21-.46,2.88h0l-11.78,8.64c-2.59,1.9-6.02,1.81-8.47,.01h0l-3.58-2.62h0c-2.46-1.79-3.6-5.05-2.6-8.12h0Z" style="fill:#306db6; fill-rule:evenodd;"/><path d="M8.6,15.93H27.03c.97,0,1.75,.78,1.75,1.75s-.78,1.75-1.75,1.75h-9.19c-.34,0-.61,.27-.61,.61s.27,.61,.61,.61h13.16c.97,0,1.75,.78,1.75,1.75s-.78,1.75-1.75,1.75h-11.99c-.34,0-.61,.27-.61,.61s.27,.61,.61,.61h14.03c.97,0,1.75,.78,1.75,1.75s-.78,1.75-1.75,1.75h-13.97c-.34,0-.61,.27-.61,.61s.27,.61,.61,.61h12.43c.97,0,1.75,.78,1.75,1.75s-.78,1.75-1.75,1.75H13.26c-.51,0-.92,.41-.92,.92,0,.29,.14,.55,.35,.72l4.52,3.28c.92,.67,1.12,1.95,.45,2.87-.67,.92-1.95,1.12-2.87,.45h0L2.98,33.25C.38,31.36-.59,28.06,.35,25.16h0l1.37-4.22h0c.94-2.9,3.67-5,6.88-5h0Z" style="fill:#306db6; fill-rule:evenodd;"/></g></g></g></g></svg>
