<?xml version="1.0" encoding="UTF-8"?><svg id="Layer_2" xmlns="http://www.w3.org/2000/svg" viewBox="0 0 398.8 86.86"><g id="Layer_6"><g><g><path d="M105.98,56.94c-.29-.37-.38-.82-.28-1.34L116.69,4.14c.1-.58,.37-1.05,.79-1.42,.42-.37,.92-.55,1.5-.55h7.11c.58,0,1.03,.19,1.34,.55,.21,.26,.32,.58,.32,.95,0,.16-.03,.32-.08,.48l-4.35,20.39h23.32l4.35-20.39c.1-.58,.37-1.05,.79-1.42,.42-.37,.92-.55,1.5-.55h7.11c.58,0,1.03,.19,1.34,.55,.21,.26,.32,.58,.32,.95,0,.16-.03,.32-.08,.48l-10.99,51.46c-.11,.58-.38,1.04-.83,1.38-.45,.34-.94,.51-1.46,.51h-7.11c-.58,0-1.01-.18-1.3-.55-.29-.37-.38-.82-.28-1.34l4.51-21.18h-23.32l-4.51,21.18c-.11,.58-.37,1.04-.79,1.38-.42,.34-.92,.51-1.5,.51h-7.11c-.58,0-1.02-.18-1.3-.55Z" style="fill:#306db6; fill-rule:evenodd;"/><path d="M170.48,53.97c-3.66-2.87-5.49-7.05-5.49-12.53,0-1.58,.16-3.19,.47-4.82,.68-3.9,1.63-8.41,2.85-13.52,1.74-7.17,4.85-12.58,9.33-16.24,4.48-3.66,10.3-5.49,17.47-5.49,5.95,0,10.75,1.49,14.39,4.47,3.64,2.98,5.45,7.21,5.45,12.69,0,1.69-.13,3.21-.4,4.58-.69,4.16-1.64,8.67-2.85,13.52-1.79,7.27-4.92,12.7-9.37,16.28-4.45,3.58-10.26,5.38-17.43,5.38-5.96,0-10.76-1.44-14.43-4.31h0Zm24.46-7.98c2.58-2.13,4.43-5.39,5.53-9.76,1.16-4.95,2.06-9.22,2.69-12.81,.26-1.32,.39-2.74,.39-4.27,0-5.8-3.06-8.7-9.17-8.7-3.64,0-6.75,1.07-9.33,3.2-2.58,2.13-4.4,5.39-5.45,9.76-1.16,4.48-2.08,8.75-2.77,12.81-.26,1.32-.4,2.74-.4,4.27,0,3,.76,5.2,2.29,6.6,1.53,1.4,3.82,2.09,6.88,2.09,3.64,0,6.75-1.07,9.33-3.2Z" style="fill:#306db6; fill-rule:evenodd;"/><path d="M218.54,56.94c-.29-.37-.38-.82-.28-1.34l10.99-51.46c.11-.58,.37-1.05,.79-1.42,.42-.37,.92-.55,1.5-.55h6.32c1.11,0,1.82,.5,2.13,1.5l9.25,28.46,21.42-28.46c.68-1,1.55-1.5,2.61-1.5h6.24c.58,0,1.03,.19,1.34,.55,.21,.26,.32,.58,.32,.95,0,.16-.03,.32-.08,.48l-10.99,51.46c-.11,.58-.38,1.04-.83,1.38-.45,.34-.94,.51-1.46,.51h-6.72c-.58,0-1.02-.18-1.31-.55-.29-.37-.38-.82-.28-1.34l7.19-33.52-15.18,20.39c-.84,1.16-1.85,1.74-3,1.74h-3.24c-1.16,0-1.92-.58-2.29-1.74l-6.8-21.58-7.35,34.7c-.11,.58-.38,1.04-.83,1.38-.45,.34-.94,.51-1.46,.51h-6.72c-.58,0-1.01-.18-1.3-.55Z" style="fill:#306db6; fill-rule:evenodd;"/><path d="M282.65,56.94c-.29-.37-.41-.84-.36-1.42l10.99-51.38c.11-.58,.37-1.05,.79-1.42,.42-.37,.92-.55,1.5-.55h7.19c.58,0,1,.19,1.26,.55,.21,.26,.32,.58,.32,.95,0,.16-.03,.32-.08,.48l-7.75,36.52L330.43,3.42c.74-.84,1.58-1.26,2.53-1.26h6.56c.53,0,.95,.19,1.26,.55,.21,.26,.32,.58,.32,.95,0,.16-.03,.32-.08,.48l-10.99,51.46c-.05,.53-.3,.98-.75,1.34-.45,.37-.94,.55-1.46,.55h-7.19c-.58,0-1.01-.18-1.3-.55-.29-.37-.38-.82-.28-1.34l7.67-35.73-33.75,36.36c-.69,.84-1.53,1.27-2.53,1.27h-6.56c-.53,0-.94-.18-1.23-.55Z" style="fill:#306db6; fill-rule:evenodd;"/><path d="M342.72,56.94c-.29-.37-.38-.82-.28-1.34l10.99-51.46c.1-.58,.37-1.05,.79-1.42,.42-.37,.92-.55,1.5-.55h7.11c.58,0,1.03,.19,1.34,.55,.21,.26,.32,.58,.32,.95,0,.16-.03,.32-.08,.48l-4.35,20.39h23.32l4.35-20.39c.11-.58,.37-1.05,.79-1.42,.42-.37,.92-.55,1.5-.55h7.11c.58,0,1.03,.19,1.34,.55,.21,.26,.32,.58,.32,.95,0,.16-.03,.32-.08,.48l-10.99,51.46c-.11,.58-.38,1.04-.83,1.38-.45,.34-.94,.51-1.46,.51h-7.11c-.58,0-1.02-.18-1.3-.55-.29-.37-.38-.82-.28-1.34l4.51-21.18h-23.32l-4.51,21.18c-.11,.58-.37,1.04-.79,1.38-.42,.34-.92,.51-1.5,.51h-7.11c-.58,0-1.01-.18-1.3-.55Z" style="fill:#306db6; fill-rule:evenodd;"/></g><path d="M124.42,66.89c.18,0,.32,.07,.43,.2,.11,.13,.14,.29,.11,.47l-2.88,13.51h.81c.18,0,.32,.07,.43,.2,.11,.13,.14,.29,.09,.47l-.94,4.46c-.03,.18-.13,.34-.3,.47-.16,.13-.34,.2-.52,.2h-2c-.18,0-.32-.07-.42-.2-.1-.13-.13-.29-.1-.47l.44-2.05h-10.08l-.44,2.05c-.03,.18-.13,.34-.3,.47-.16,.13-.34,.2-.52,.2h-2c-.18,0-.32-.07-.42-.2-.1-.13-.13-.29-.1-.47l.94-4.46c.03-.18,.12-.33,.27-.46,.15-.12,.31-.19,.49-.21h.34c.63,0,1.13-.23,1.5-.7,.38-.47,.67-1.2,.89-2.21l2.27-10.6c.03-.18,.13-.34,.28-.47,.16-.13,.32-.2,.51-.2h11.19Zm-5.67,14.17l2.37-11.09h-5.87l-1.8,8.43c-.08,.38-.2,.83-.36,1.37-.16,.53-.4,.97-.73,1.29h6.38Z" style="fill:#ee3524; fill-rule:evenodd;"/><path d="M167.44,66.89c.26,0,.44,.07,.54,.21,.1,.14,.17,.35,.22,.63l2.74,15.58c.03,.23-.04,.43-.21,.59-.17,.16-.37,.25-.6,.25h-1.65c-.33,0-.54-.07-.64-.21-.1-.14-.16-.28-.2-.41l-.49-2.74h-7.79l-1.63,2.74c-.08,.13-.2,.27-.36,.41-.16,.14-.4,.21-.73,.21h-1.97c-.23,0-.39-.09-.49-.28-.1-.19-.09-.37,.03-.56l9.34-15.58c.16-.28,.32-.49,.48-.63,.16-.14,.37-.21,.63-.21h2.79Zm-.81,10.82l-1.21-7.02-4.21,7.02h5.42Z" style="fill:#ee3524; fill-rule:evenodd;"/><path d="M214.51,66.89c.26,0,.44,.07,.54,.21,.1,.14,.17,.35,.22,.63l2.74,15.58c.03,.23-.04,.43-.21,.59-.17,.16-.37,.25-.6,.25h-1.65c-.33,0-.54-.07-.64-.21-.1-.14-.16-.28-.2-.41l-.49-2.74h-7.79l-1.63,2.74c-.08,.13-.2,.27-.36,.41-.16,.14-.4,.21-.73,.21h-1.97c-.23,0-.39-.09-.49-.28-.1-.19-.09-.37,.03-.56l9.34-15.58c.16-.28,.32-.49,.48-.63,.16-.14,.37-.21,.63-.21h2.79Zm-.81,10.82l-1.21-7.02-4.21,7.02h5.42Z" style="fill:#ee3524; fill-rule:evenodd;"/><path d="M263.03,66.89c.18,0,.32,.07,.43,.2,.11,.13,.14,.29,.11,.47l-.39,1.75c-.03,.18-.13,.34-.28,.47-.16,.13-.32,.2-.51,.2h-4.44l-2.88,13.51c-.03,.18-.13,.34-.28,.47-.16,.13-.32,.2-.51,.2h-2c-.18,0-.32-.07-.43-.2s-.14-.29-.11-.47l2.88-13.51h-4.44c-.18,0-.32-.07-.43-.2-.11-.13-.14-.29-.11-.47l.39-1.75c.03-.18,.13-.34,.28-.47,.16-.13,.32-.2,.5-.2h12.2Z" style="fill:#ee3524; fill-rule:evenodd;"/><path d="M307.16,66.89c.18,0,.32,.07,.43,.2,.11,.13,.14,.29,.11,.47l-.39,1.75c-.03,.18-.13,.34-.28,.47-.16,.13-.32,.2-.51,.2h-7.99l-2.88,13.51c-.03,.18-.13,.34-.28,.47-.16,.13-.33,.2-.51,.2h-2c-.18,0-.32-.07-.43-.2-.11-.13-.14-.29-.11-.47l3.4-15.92c.03-.18,.13-.34,.28-.47,.16-.13,.32-.2,.5-.2h10.65Z" style="fill:#ee3524; fill-rule:evenodd;"/><path d="M345.65,66.89c.26,0,.44,.07,.54,.21,.1,.14,.17,.35,.22,.63l2.74,15.58c.03,.23-.04,.43-.21,.59-.17,.16-.37,.25-.6,.25h-1.65c-.33,0-.54-.07-.64-.21-.1-.14-.16-.28-.2-.41l-.49-2.74h-7.79l-1.63,2.74c-.08,.13-.2,.27-.36,.41-.16,.14-.4,.21-.73,.21h-1.97c-.23,0-.39-.09-.49-.28-.1-.19-.09-.37,.03-.56l9.34-15.58c.16-.28,.33-.49,.48-.63,.16-.14,.37-.21,.63-.21h2.79Zm-.81,10.82l-1.21-7.02-4.21,7.02h5.42Z" style="fill:#ee3524; fill-rule:evenodd;"/><path d="M388.69,69.97l-2,9.37c-.16,.74-.39,1.42-.68,2.03-.29,.62-.66,1.15-1.12,1.6-.46,.45-1.02,.8-1.69,1.05-.67,.25-1.45,.37-2.35,.37h-.86c-.18,0-.32-.07-.42-.2-.1-.13-.13-.29-.1-.47l.37-1.75c.03-.18,.13-.34,.3-.47,.16-.13,.34-.2,.52-.2h.25c.79,0,1.37-.2,1.74-.59,.37-.39,.63-.92,.78-1.58l2.46-11.58c.03-.18,.13-.34,.28-.47,.16-.13,.32-.2,.5-.2h11.19c.18,0,.32,.07,.43,.2,.11,.13,.14,.29,.11,.47l-3.4,15.92c-.03,.18-.13,.34-.28,.47s-.32,.2-.51,.2h-2c-.18,0-.33-.07-.43-.2s-.14-.29-.11-.47l2.88-13.51h-5.87Z" style="fill:#ee3524; fill-rule:evenodd;"/><g><path d="M48.26,1.05c-.88-.69-1.96-1.05-3.08-1.05-1,0-1.97,.29-2.8,.85h0c-.11,.07-.21,.15-.32,.23h-.01L3.58,29.36,0,51.98c4.01,.67,8.12,1.08,12.17,.6,4.66-.55,8.76-2.24,12.31-5.35l19.9-17.41c1.09-.93,1.71-2.27,1.71-3.7,0-2.69-2.18-4.87-4.87-4.87-1.18,0-2.32,.43-3.21,1.21l-.59,.52-.03-.03-13.4,10.62c-1.18,.93-2.96,.73-3.82-.52-.76-1.1-.62-2.73,.45-3.58L43.33,11.47c1.08-.86,2.6-.88,3.69-.02l20.95,16.62c.8,.66,1.8,1.02,2.83,1.02,2.46,0,4.45-1.99,4.45-4.45,0-1.37-.62-2.64-1.69-3.49L48.26,1.05Z" style="fill:#306db6; fill-rule:evenodd;"/><path d="M47.01,22.26c8.24,.71,15.07,6.36,17.52,13.97l-19.74,17.28c-1.54,1.32-2.43,3.24-2.43,5.28,0,1.42,.43,2.75,1.16,3.85-8.25-.7-15.09-6.33-17.55-13.94l19.78-17.3c1.54-1.32,2.43-3.24,2.43-5.28,0-1.42-.43-2.75-1.16-3.85Z" style="fill:#ffcb05; fill-rule:evenodd;"/><path d="M42.26,83.84c.88,.69,1.96,1.05,3.08,1.05,1,0,1.97-.29,2.8-.85h0c.11-.07,.21-.15,.32-.23h.01l38.47-28.27,3.58-22.61c-4.01-.67-8.12-1.08-12.17-.6-4.66,.55-8.76,2.24-12.31,5.35l-19.9,17.41c-1.09,.93-1.71,2.27-1.71,3.7,0,2.69,2.18,4.87,4.87,4.87,1.18,0,2.32-.42,3.21-1.21l.59-.52,.03,.03,13.4-10.62c1.18-.93,2.96-.73,3.82,.52,.76,1.1,.62,2.73-.46,3.58l-22.7,17.98c-1.08,.86-2.6,.88-3.69,.02l-20.95-16.62c-.8-.66-1.8-1.02-2.83-1.02-2.46,0-4.45,1.99-4.45,4.45,0,1.37,.62,2.64,1.69,3.49l25.3,20.1Z" style="fill:#306db6; fill-rule:evenodd;"/></g></g></g></svg>