<svg id="Layer_2" xmlns="http://www.w3.org/2000/svg" viewBox="0 0 204.95 52.17"><g id="Layer_12"><g><path d="M91.87,43.13c.22,.32,.29,.59,.22,.81-.07,.4-.28,.74-.62,1.03-.34,.29-.71,.43-1.11,.43h-4.27c-.72,0-1.26-.18-1.62-.54-.36-.36-.58-.59-.65-.7l-9.94-14.75-3.13,14.53c-.07,.4-.28,.74-.62,1.03-.34,.29-.71,.43-1.11,.43h-4.37c-.4,0-.71-.14-.94-.43-.23-.29-.32-.63-.24-1.03l7.45-34.89c.07-.4,.28-.74,.62-1.03,.34-.29,.71-.43,1.11-.43h4.38c.4,0,.71,.14,.94,.43,.23,.29,.32,.63,.24,1.03l-2.59,12.42,14.15-12.69c.4-.36,.79-.65,1.19-.86,.4-.22,.88-.32,1.46-.32h5.56c.4,0,.71,.14,.95,.43,.23,.29,.32,.63,.24,1.03-.07,.25-.25,.52-.54,.81l-18.2,16.31,11.45,16.96Z" style="fill:#306db6; fill-rule:evenodd;"/><path d="M122.75,7.59c.58,0,.97,.15,1.19,.46,.22,.31,.38,.77,.49,1.38l5.99,34.13c.07,.5-.08,.94-.46,1.3-.38,.36-.82,.54-1.32,.54h-3.62c-.72,0-1.19-.15-1.4-.46-.22-.31-.36-.6-.43-.89l-1.08-5.99h-17.07l-3.57,5.99c-.18,.29-.44,.59-.78,.89-.34,.31-.87,.46-1.59,.46h-4.32c-.5,0-.86-.21-1.08-.62-.22-.41-.2-.82,.05-1.22L114.21,9.43c.36-.61,.71-1.07,1.05-1.38,.34-.31,.8-.46,1.38-.46h6.1Zm-1.78,23.71l-2.65-15.39-9.24,15.39h11.88Z" style="fill:#306db6; fill-rule:evenodd;"/><path d="M158.38,7.59c2.02,0,3.84,.26,5.48,.78,1.64,.52,3,1.3,4.08,2.32,1.08,1.03,1.83,2.29,2.24,3.78,.41,1.49,.4,3.23-.03,5.21-.43,1.98-1.04,3.73-1.81,5.24-.77,1.51-1.8,2.78-3.08,3.81-1.28,1.03-2.82,1.81-4.62,2.35-1.8,.54-3.91,.81-6.32,.81h-9.18l-2.59,12.04c-.07,.4-.28,.74-.62,1.03-.34,.29-.71,.43-1.11,.43h-4.38c-.4,0-.71-.14-.94-.43-.23-.29-.32-.63-.24-1.03l7.45-34.89c.07-.4,.28-.74,.62-1.03,.34-.29,.71-.43,1.11-.43h13.93Zm-11.83,17.55h8.37c2.05,0,3.78-.4,5.19-1.19,1.4-.79,2.32-2.21,2.75-4.27,.43-2.02,.12-3.41-.94-4.19s-2.62-1.16-4.67-1.16h-8.37l-2.32,10.8Z" style="fill:#306db6; fill-rule:evenodd;"/><path d="M203.73,7.59c.4,0,.71,.14,.94,.43,.23,.29,.32,.63,.24,1.03l-.86,3.83c-.07,.4-.28,.74-.62,1.03-.34,.29-.71,.43-1.11,.43h-9.72l-6.32,29.6c-.07,.4-.28,.74-.62,1.03s-.71,.43-1.11,.43h-4.38c-.4,0-.71-.14-.94-.43-.23-.29-.32-.63-.24-1.03l6.32-29.6h-9.72c-.4,0-.71-.14-.95-.43-.23-.29-.32-.63-.24-1.03l.86-3.83c.07-.4,.28-.74,.62-1.03,.34-.29,.71-.43,1.11-.43h26.73Z" style="fill:#306db6; fill-rule:evenodd;"/><g><path d="M5.31,9.79h11.38c.6,0,1.08,.48,1.08,1.08s-.48,1.08-1.08,1.08h-5.67c-.21,0-.38,.17-.38,.37s.17,.37,.38,.37h8.12c.6,0,1.08,.48,1.08,1.08s-.48,1.08-1.08,1.08h-7.4c-.21,0-.37,.17-.37,.37s.17,.37,.37,.37h8.66c.6,0,1.08,.48,1.08,1.08s-.48,1.08-1.08,1.08H11.78c-.21,0-.37,.17-.37,.37s.17,.37,.37,.37h7.68c.6,0,1.08,.48,1.08,1.08s-.48,1.08-1.08,1.08H8.19c-.31,0-.57,.25-.57,.56,0,.18,.08,.34,.22,.44l2.79,2.02c.57,.41,.69,1.2,.28,1.76-.41,.56-1.2,.69-1.77,.28h0L1.84,20.43C.24,19.27-.36,17.24,.22,15.46h0l.85-2.6h0c.58-1.78,2.26-3.07,4.25-3.07h0Z" style="fill:#306db6; fill-rule:evenodd;"/><path d="M2.67,39.6l3.52-10.82c.18-.57,.79-.88,1.36-.7,.56,.18,.87,.79,.69,1.36l-1.75,5.4c-.06,.2,.04,.41,.24,.47,.2,.06,.41-.04,.47-.24l2.51-7.73c.18-.57,.79-.88,1.36-.69s.87,.79,.69,1.36l-2.29,7.04c-.06,.2,.04,.41,.24,.47,.2,.06,.41-.04,.47-.24l2.68-8.24c.18-.57,.79-.88,1.36-.7,.57,.18,.87,.79,.69,1.36l-2.66,8.2c-.06,.2,.04,.41,.24,.47,.2,.06,.41-.05,.47-.24l2.37-7.3c.19-.57,.79-.88,1.36-.7,.57,.18,.87,.79,.69,1.36l-3.48,10.72c-.1,.3,.07,.62,.36,.71,.17,.05,.35,.03,.49-.07l2.78-2.03c.56-.41,1.35-.29,1.76,.28,.41,.57,.28,1.36-.28,1.77l-7.28,5.31c-1.6,1.17-3.71,1.11-5.23,0h0l-2.21-1.61h0c-1.52-1.1-2.22-3.1-1.61-4.99h0Z" style="fill:#306db6; fill-rule:evenodd;"/><path d="M30.2,51.31l-9.2-6.69c-.48-.35-.59-1.03-.24-1.51,.35-.48,1.02-.59,1.51-.24l4.59,3.34c.17,.12,.4,.08,.52-.08,.12-.17,.08-.4-.08-.52l-6.57-4.78c-.48-.35-.59-1.03-.24-1.51,.35-.48,1.02-.59,1.51-.23l5.99,4.35c.17,.12,.4,.09,.52-.08,.12-.17,.08-.4-.08-.52l-7.01-5.09c-.48-.35-.59-1.02-.24-1.51,.35-.48,1.02-.59,1.51-.24l6.97,5.07c.17,.12,.4,.08,.52-.08,.12-.17,.08-.4-.08-.52l-6.21-4.51c-.48-.35-.59-1.03-.24-1.51,.35-.48,1.03-.59,1.51-.24l9.11,6.62c.25,.18,.61,.13,.79-.12,.11-.15,.13-.32,.09-.48l-1.07-3.27c-.22-.66,.15-1.38,.81-1.59,.66-.21,1.38,.15,1.6,.81h0l2.8,8.56c.62,1.88-.09,3.87-1.61,4.98h0l-2.21,1.6h0c-1.52,1.1-3.64,1.16-5.24-.01h0Z" style="fill:#306db6; fill-rule:evenodd;"/><path d="M49.85,28.75l-9.2,6.69c-.48,.35-1.16,.25-1.51-.24-.35-.48-.24-1.15,.24-1.51l4.59-3.33c.17-.12,.2-.36,.08-.52-.12-.17-.35-.2-.52-.08l-6.57,4.78c-.48,.35-1.16,.25-1.51-.24-.35-.48-.24-1.16,.24-1.51l5.99-4.35c.17-.12,.21-.36,.08-.52-.12-.17-.35-.2-.52-.08l-7.01,5.09c-.48,.35-1.16,.25-1.51-.24s-.24-1.16,.24-1.51l6.97-5.07c.17-.12,.2-.36,.08-.52-.12-.17-.36-.2-.52-.08l-6.21,4.51c-.48,.35-1.16,.25-1.51-.24-.35-.48-.24-1.16,.24-1.51l9.11-6.62c.25-.18,.31-.54,.13-.79-.11-.15-.27-.23-.44-.23h-3.44c-.7,0-1.26-.56-1.26-1.25,0-.7,.57-1.26,1.27-1.27h0l9.01-.02c1.98,0,3.66,1.28,4.23,3.07h0l.84,2.6h0c.58,1.78-.03,3.81-1.63,4.98h0Z" style="fill:#306db6; fill-rule:evenodd;"/><path d="M34.47,3.09l3.52,10.82c.18,.57-.12,1.18-.69,1.36-.57,.18-1.17-.13-1.36-.7l-1.75-5.4c-.06-.2-.27-.3-.47-.24-.2,.06-.3,.27-.24,.47l2.51,7.73c.18,.57-.13,1.18-.69,1.36-.56,.18-1.17-.13-1.36-.7l-2.29-7.04c-.06-.2-.28-.3-.47-.24-.2,.06-.3,.28-.24,.47l2.68,8.24c.18,.57-.12,1.18-.69,1.36-.56,.18-1.17-.13-1.36-.7l-2.66-8.2c-.07-.2-.28-.3-.47-.24-.2,.06-.3,.28-.24,.47l2.37,7.3c.18,.57-.13,1.18-.69,1.36-.57,.18-1.17-.13-1.36-.69l-3.48-10.72c-.1-.3-.41-.46-.71-.36-.17,.05-.3,.18-.35,.34l-1.06,3.28c-.21,.66-.93,1.03-1.59,.81-.66-.22-1.03-.93-.81-1.6l2.77-8.57C23.89,1.19,25.63,0,27.51,0h2.73c1.87,0,3.62,1.21,4.23,3.09h0Z" style="fill:#306db6; fill-rule:evenodd;"/></g></g></g></svg>
